<?xml version="1.0" standalone="no"?>
<!DOCTYPE svg PUBLIC "-//W3C//DTD SVG 20010904//EN"
 "http://www.w3.org/TR/2001/REC-SVG-20010904/DTD/svg10.dtd">
<svg version="1.0" xmlns="http://www.w3.org/2000/svg"
 width="741.000000pt" height="336.000000pt" viewBox="0 0 741.000000 336.000000"
 preserveAspectRatio="xMidYMid meet">

<g transform="translate(0.000000,336.000000) scale(0.100000,-0.100000)"
fill="#000000" stroke="none">
<path d="M4858 2863 l-1338 -3 0 -129 c0 -82 -4 -132 -11 -136 -6 -4 -67 -6
-137 -6 l-127 2 2 -282 c1 -155 5 -284 8 -287 3 -3 5 0 5 6 0 8 7 9 25 2 l25
-9 2 252 3 252 1650 0 c908 0 1653 4 1656 8 3 5 9 1 12 -8 4 -9 3 -14 -2 -11
-5 3 -12 -4 -15 -17 -4 -12 -6 -488 -5 -1057 1 -569 1 -1041 0 -1048 -1 -10
-334 -12 -1648 -10 l-1648 3 -3 248 -2 247 -30 0 -30 0 0 -280 0 -280 1713 2
1712 3 -4 111 c-5 159 -10 154 149 154 l130 0 0 1114 c0 882 -3 1115 -12 1119
-10 4 -10 6 0 6 6 1 12 8 12 16 0 13 -36 15 -267 15 -148 0 -317 2 -378 3 -60
2 -712 2 -1447 0z m2027 -1138 l0 -1070 -103 -5 c-56 -3 -102 -2 -102 3 0 4 0
10 1 13 0 4 -5 11 -13 15 -7 5 -8 9 -3 9 7 0 10 323 10 950 l0 950 -1546 -2
-1546 -3 -2 85 c-1 46 -7 90 -13 97 -8 10 -7 12 6 7 9 -4 16 -3 15 2 -1 5 -1
12 0 17 0 4 742 6 1649 5 l1647 -3 0 -1070z m-3331 1029 c3 -8 2 -12 -4 -9 -6
3 -10 10 -10 16 0 14 7 11 14 -7z m3126 -2154 c0 -5 -2 -10 -4 -10 -3 0 -8 5
-11 10 -3 6 -1 10 4 10 6 0 11 -4 11 -10z"/>
<path d="M3147 1902 c-10 -10 -17 -25 -17 -33 1 -10 5 -8 15 5 8 11 15 15 15
9 0 -6 -6 -15 -13 -21 -22 -18 -19 -60 5 -77 30 -20 77 -19 95 3 9 10 12 11 7
2 -5 -11 -4 -12 5 -4 19 17 26 91 11 109 -7 8 -16 13 -20 10 -5 -3 -11 -1 -15
5 -10 17 -71 11 -88 -8z m111 -40 c-4 -2 -5 -9 -2 -14 4 -7 2 -8 -5 -4 -6 4
-9 11 -6 16 3 4 -2 13 -10 20 -8 7 -15 17 -15 22 0 5 11 -2 23 -14 13 -13 20
-25 15 -26z m-64 10 c3 -5 -1 -9 -9 -9 -8 0 -12 4 -9 9 3 4 7 8 9 8 2 0 6 -4
9 -8z m-17 -36 c-3 -8 0 -20 8 -26 10 -8 14 -8 17 2 3 7 7 5 12 -7 4 -11 4
-16 0 -12 -4 4 -13 2 -21 -4 -7 -6 -14 -9 -14 -5 -1 3 -2 12 -3 19 -1 6 -7 11
-14 9 -9 -1 -9 3 0 18 15 23 23 26 15 6z"/>
<path d="M297 1842 c12 -25 15 -813 3 -828 -8 -8 10 -12 72 -13 44 -1 86 -4
91 -8 5 -3 13 0 17 7 5 7 9 196 9 418 1 349 3 408 16 422 15 16 8 17 -101 18
-106 1 -115 0 -107 -16z"/>
<path d="M5419 1833 c-5 -16 -12 -33 -14 -40 -2 -7 -1 -14 4 -17 4 -3 13 -34
21 -70 8 -37 18 -63 23 -59 6 3 7 1 3 -6 -7 -10 48 -187 143 -462 33 -96 52
-169 42 -166 -3 1 -8 -2 -11 -7 -3 -5 44 -10 112 -10 65 -1 118 0 118 1 0 1
-11 13 -24 26 -14 14 -23 27 -20 29 2 3 -2 17 -9 31 -8 15 -16 25 -18 23 -2
-2 -5 12 -6 31 -1 20 -5 39 -10 42 -4 3 -9 13 -11 21 -11 52 -46 139 -55 133
-6 -4 -7 -1 -2 6 6 10 -38 155 -75 246 -4 11 -20 55 -35 98 -15 42 -31 77 -36
77 -4 0 -6 6 -3 13 2 7 -2 30 -11 50 -15 36 -17 37 -65 37 -46 0 -51 -2 -61
-27z m82 -270 c-12 -20 -14 -14 -5 12 4 9 9 14 11 11 3 -2 0 -13 -6 -23z m84
-203 c-3 -5 -1 -10 6 -10 7 0 10 -3 6 -6 -9 -9 -28 6 -22 17 4 5 8 9 11 9 3 0
2 -4 -1 -10z"/>
<path d="M6055 1840 c13 -14 15 -75 15 -416 0 -298 -3 -403 -12 -412 -7 -7
-10 -12 -7 -12 55 -4 211 -1 216 4 4 4 -1 4 -11 0 -13 -5 -17 -4 -13 4 5 7 10
643 7 840 0 10 -24 13 -105 11 -97 -2 -104 -4 -90 -19z"/>
<path d="M6260 1849 c0 -5 5 -7 10 -4 6 3 10 8 10 11 0 2 -4 4 -10 4 -5 0 -10
-5 -10 -11z"/>
<path d="M2210 1639 c0 -7 10 -9 25 -7 13 3 23 2 22 -1 -1 -3 7 -18 16 -33 28
-40 37 -132 37 -358 0 -113 1 -213 2 -222 1 -16 12 -18 79 -18 42 0 85 -3 94
-6 16 -6 16 -5 1 25 -15 27 -17 65 -15 262 1 159 -2 234 -10 242 -6 6 -11 19
-11 30 0 23 -66 87 -91 87 -9 0 -24 3 -33 6 -9 3 -16 1 -16 -6 0 -6 5 -8 12
-4 7 5 8 3 3 -6 -6 -10 -11 -10 -20 3 -18 25 -27 21 -15 -5 l11 -23 -17 23
c-17 23 -74 32 -74 11z m208 -129 c0 -9 -3 -7 -8 5 -5 11 -8 29 -8 40 0 16 2
15 8 -5 4 -14 8 -32 8 -40z m36 -6 c3 -8 2 -12 -4 -9 -6 3 -10 10 -10 16 0 14
7 11 14 -7z"/>
<path d="M2605 1640 c4 -6 16 -9 27 -7 11 3 17 3 14 0 -3 -3 7 -21 22 -41 l27
-35 5 -279 5 -279 85 -1 c108 0 105 -1 89 19 -11 12 -15 74 -19 262 -6 245
-15 311 -42 295 -7 -4 -8 -3 -4 4 8 14 -31 55 -45 47 -5 -4 -6 -11 -3 -17 4
-7 2 -8 -4 -4 -6 4 -9 12 -6 20 6 15 3 15 -90 23 -51 3 -66 2 -61 -7z"/>
<path d="M3860 1639 c0 -5 4 -8 8 -5 14 9 48 -21 66 -58 14 -29 16 -75 16
-305 0 -149 3 -271 8 -271 120 -5 159 -4 155 4 -4 5 0 6 8 0 25 -16 46 -14 24
2 -19 14 -20 30 -25 262 -4 219 -7 251 -24 276 -11 18 -13 26 -5 21 8 -5 -1 8
-19 27 -18 19 -50 40 -71 47 -48 14 -141 15 -141 0z m151 -26 c13 -16 12 -17
-3 -4 -17 13 -22 21 -14 21 2 0 10 -8 17 -17z m76 -525 c-3 -8 -6 -5 -6 6 -1
11 2 17 5 13 3 -3 4 -12 1 -19z"/>
<path d="M4472 1635 c-18 -8 -36 -14 -40 -15 -15 0 -62 -41 -57 -50 3 -5 1
-11 -4 -15 -6 -3 -6 -16 0 -34 12 -33 69 -62 103 -53 11 3 15 7 8 10 -15 5
-16 22 -2 22 6 0 14 -10 19 -22 6 -16 9 -5 14 45 6 66 20 105 41 119 20 14
-48 8 -82 -7z m43 -15 c3 -5 1 -10 -4 -10 -6 0 -11 5 -11 10 0 6 2 10 4 10 3
0 8 -4 11 -10z"/>
<path d="M4654 1641 c4 -6 11 -9 16 -6 5 3 12 0 16 -6 5 -8 3 -9 -6 -4 -10 6
-11 4 -4 -11 5 -10 10 -78 12 -151 3 -119 5 -131 20 -126 15 5 15 4 -1 -8 -15
-12 -17 -33 -18 -167 0 -85 1 -156 4 -158 8 -9 179 -9 184 -1 2 4 0 13 -5 20
-6 7 -11 118 -14 259 -3 228 -5 248 -23 269 -12 13 -14 19 -5 14 9 -5 7 1 -5
14 -27 31 -80 57 -134 66 -31 5 -42 4 -37 -4z"/>
<path d="M1063 1619 c6 -10 13 -16 17 -14 3 2 4 -99 4 -223 -1 -177 2 -235 14
-271 17 -53 40 -83 55 -74 6 3 7 1 3 -6 -10 -16 59 -44 95 -39 15 3 26 1 23
-4 -6 -9 86 -2 95 8 3 4 -8 5 -26 2 -17 -2 -31 -2 -30 1 3 10 -41 50 -48 43
-3 -4 -3 2 1 12 5 12 4 17 -3 13 -5 -3 -9 2 -9 11 0 406 -5 562 -19 562 -8 0
-15 -6 -15 -12 0 -10 -2 -10 -9 0 -5 9 -30 12 -83 10 -69 -2 -75 -4 -65 -19z
m127 -589 c0 -5 -5 -10 -11 -10 -5 0 -7 5 -4 10 3 6 8 10 11 10 2 0 4 -4 4
-10z"/>
<path d="M1457 1611 c24 -24 24 -26 23 -220 -1 -108 -5 -215 -10 -239 -4 -23
-3 -45 1 -48 5 -3 9 -27 9 -55 l0 -49 63 -1 c34 0 77 -2 94 -4 39 -4 50 7 26
26 -9 8 -14 9 -10 3 3 -6 0 -11 -8 -11 -11 0 -12 4 -4 14 6 7 9 20 5 28 -3 8
-6 143 -6 298 l-1 283 -67 -1 c-37 0 -70 -4 -74 -10 -5 -6 -8 -6 -8 1 0 6 -13
11 -29 10 l-29 -1 25 -24z"/>
<path d="M1902 1633 c-12 -2 -20 -9 -16 -14 3 -5 9 -7 14 -4 5 3 9 -125 9
-300 0 -168 -4 -303 -8 -300 -5 2 -13 -1 -19 -8 -8 -9 15 -12 109 -12 65 0
119 2 119 5 0 3 -7 14 -16 25 -12 16 -14 66 -13 307 0 158 -2 292 -6 298 -6
10 -125 12 -173 3z"/>
<path d="M3103 1612 c21 -23 22 -32 25 -289 3 -226 1 -269 -13 -289 -8 -13
-15 -25 -15 -28 0 -3 42 -6 94 -8 61 -2 92 1 88 7 -3 6 2 4 11 -3 9 -8 21 -11
27 -7 7 5 5 11 -7 20 -10 7 -22 11 -28 7 -7 -4 -7 -1 0 9 6 9 8 120 5 309 l-5
295 -102 0 -102 0 22 -23z"/>
<path d="M3530 1634 c0 -5 7 -18 15 -28 23 -31 22 -546 -1 -581 -9 -14 -15
-25 -13 -25 35 -5 222 -3 225 1 2 4 -4 13 -13 20 -14 12 -16 12 -8 0 5 -8 4
-12 -1 -9 -5 4 -7 113 -4 260 3 139 3 255 0 258 -3 3 -5 27 -5 55 l0 49 -78
-1 c-43 0 -81 -3 -84 -7 -3 -3 -12 -1 -20 5 -7 6 -13 8 -13 3z m171 -611 c13
-16 12 -17 -3 -4 -10 7 -18 15 -18 17 0 8 8 3 21 -13z"/>
<path d="M4525 1333 c-11 -3 -26 -10 -34 -17 -10 -7 -13 -8 -8 0 12 20 -73 -2
-88 -22 -7 -10 -21 -19 -31 -19 -13 0 -24 -15 -36 -47 -14 -39 -16 -57 -8
-100 6 -28 17 -62 26 -75 21 -33 75 -64 98 -57 10 3 16 2 13 -3 -6 -10 88 -12
98 -2 9 9 -44 21 -58 13 -9 -5 -9 -4 -1 5 8 9 7 26 -3 64 -22 81 -10 182 28
230 17 20 29 36 27 36 -2 -1 -12 -4 -23 -6z m-172 -228 c-3 -9 -8 -14 -10 -11
-3 3 -2 9 2 15 9 16 15 13 8 -4z m19 -17 c-7 -7 -12 -8 -12 -2 0 14 12 26 19
19 2 -3 -1 -11 -7 -17z m24 -18 c0 -12 -4 -16 -9 -11 -5 5 -6 14 -3 20 10 15
12 14 12 -9z"/>
<path d="M875 1078 c-10 -21 -23 -38 -27 -38 -5 0 -7 -4 -4 -8 3 -5 0 -9 -7
-9 -7 0 -28 -8 -47 -16 l-35 -16 70 3 70 2 3 32 c2 18 2 45 0 60 -4 27 -4 27
-23 -10z"/>
<path d="M5121 1039 c-1 -9 -8 -20 -17 -23 -23 -9 -9 -20 27 -22 27 -2 29 0
16 15 -8 9 -17 23 -20 31 -4 12 -6 12 -6 -1z"/>
</g>
</svg>
